mtllib cuy_combate_body.mtl
o CuyCombatBody
v -0.000000 0.120000 0.220000
v -0.034280 0.120000 0.217922
v -0.067913 0.120000 0.211727
v -0.100262 0.120000 0.201532
v -0.130718 0.120000 0.187531
v -0.158704 0.120000 0.169986
v -0.183692 0.120000 0.149230
v -0.205210 0.120000 0.125655
v -0.222851 0.120000 0.099707
v -0.236282 0.120000 0.071874
v -0.245249 0.120000 0.042684
v -0.249584 0.120000 0.012688
v -0.249203 0.120000 -0.017549
v -0.244115 0.120000 -0.047453
v -0.234415 0.120000 -0.076461
v -0.220287 0.120000 -0.104025
v -0.201997 0.120000 -0.129624
v -0.179891 0.120000 -0.152774
v -0.154387 0.120000 -0.173037
v -0.131754 0.120000 -0.186968
v -0.107512 0.120000 -0.198617
v -0.081958 0.120000 -0.207842
v -0.055404 0.120000 -0.214529
v -0.028173 0.120000 -0.218599
v -0.000599 0.120000 -0.219999
v 0.026983 0.120000 -0.218715
v 0.054235 0.120000 -0.214761
v 0.080825 0.120000 -0.208185
v 0.106429 0.120000 -0.199068
v 0.130734 0.120000 -0.187522
v 0.153443 0.120000 -0.173686
v 0.179104 0.120000 -0.153489
v 0.201368 0.120000 -0.130380
v 0.219813 0.120000 -0.104799
v 0.234090 0.120000 -0.077230
v 0.243927 0.120000 -0.048197
v 0.249138 0.120000 -0.018249
v 0.249625 0.120000 0.012044
v 0.245378 0.120000 0.042109
v 0.236477 0.120000 0.071376
v 0.223092 0.120000 0.099289
v 0.205475 0.120000 0.125318
v 0.183963 0.120000 0.148972
v 0.158961 0.120000 0.169800
v 0.130945 0.120000 0.187408
v 0.100445 0.120000 0.201462
v 0.068041 0.120000 0.211695
v 0.034346 0.120000 0.217914
v 0.000000 0.120000 0.220000
v -0.000000 0.180000 0.290000
v -0.043963 0.180000 0.287250
v -0.087092 0.180000 0.279053
v -0.128570 0.180000 0.265563
v -0.167609 0.180000 0.247038
v -0.203470 0.180000 0.223827
v -0.235472 0.180000 0.196372
v -0.263009 0.180000 0.165193
v -0.285557 0.180000 0.130880
v -0.302691 0.180000 0.094086
v -0.314084 0.180000 0.055508
v -0.319520 0.180000 0.015877
v -0.318897 0.180000 -0.024056
v -0.312227 0.180000 -0.063532
v -0.299635 0.180000 -0.101803
v -0.281361 0.180000 -0.138144
v -0.257751 0.180000 -0.171864
v -0.229253 0.180000 -0.202326
v -0.196407 0.180000 -0.228950
v -0.167339 0.180000 -0.247188
v -0.136229 0.180000 -0.262408
v -0.103456 0.180000 -0.274426
v -0.069421 0.180000 -0.283094
v -0.034538 0.180000 -0.288306
v 0.000767 0.180000 -0.289999
v 0.036062 0.180000 -0.288153
v 0.070917 0.180000 -0.282789
v 0.104907 0.180000 -0.273973
v 0.137615 0.180000 -0.261814
v 0.168645 0.180000 -0.246458
v 0.197615 0.180000 -0.228095
v 0.230261 0.180000 -0.201383
v 0.258556 0.180000 -0.170868
v 0.281967 0.180000 -0.137124
v 0.300051 0.180000 -0.100790
v 0.312467 0.180000 -0.062552
v 0.318980 0.180000 -0.023132
v 0.319467 0.180000 0.016725
v 0.313919 0.180000 0.056265
v 0.302441 0.180000 0.094743
v 0.285249 0.180000 0.131431
v 0.262668 0.180000 0.165636
v 0.235126 0.180000 0.196713
v 0.203141 0.180000 0.224072
v 0.167319 0.180000 0.247199
v 0.128336 0.180000 0.265656
v 0.086928 0.180000 0.279095
v 0.043879 0.180000 0.287261
v 0.000000 0.180000 0.290000
v -0.000000 0.280000 0.350000
v -0.052367 0.280000 0.346661
v -0.103735 0.280000 0.336706
v -0.153124 0.280000 0.320327
v -0.199590 0.280000 0.297835
v -0.242248 0.280000 0.269659
v -0.280283 0.280000 0.236338
v -0.312970 0.280000 0.198507
v -0.339685 0.280000 0.156888
v -0.359917 0.280000 0.112276
v -0.373282 0.280000 0.065521
v -0.379524 0.280000 0.017515
v -0.378523 0.280000 -0.030824
v -0.370300 0.280000 -0.078576
v -0.355010 0.280000 -0.124828
v -0.332946 0.280000 -0.168698
v -0.304529 0.280000 -0.209349
v -0.270301 0.280000 -0.246005
v -0.230914 0.280000 -0.277967
v -0.196214 0.280000 -0.299732
v -0.159118 0.280000 -0.317839
v -0.120080 0.280000 -0.332066
v -0.079576 0.280000 -0.342240
v -0.038101 0.280000 -0.348236
v 0.003839 0.280000 -0.349982
v 0.045732 0.280000 -0.347456
v 0.087067 0.280000 -0.340689
v 0.127339 0.280000 -0.329763
v 0.166057 0.280000 -0.314813
v 0.202748 0.280000 -0.296019
v 0.236965 0.280000 -0.273613
v 0.275348 0.280000 -0.241209
v 0.308562 0.280000 -0.204278
v 0.335983 0.280000 -0.163511
v 0.357096 0.280000 -0.119674
v 0.371505 0.280000 -0.073591
v 0.378940 0.280000 -0.026125
v 0.379260 0.280000 0.021830
v 0.372460 0.280000 0.069376
v 0.358668 0.280000 0.115619
v 0.338141 0.280000 0.159692
v 0.311267 0.280000 0.200766
v 0.278549 0.280000 0.238072
v 0.240601 0.280000 0.270907
v 0.198136 0.280000 0.298657
v 0.151951 0.280000 0.320800
v 0.102914 0.280000 0.336920
v 0.051945 0.280000 0.346715
v 0.000000 0.280000 0.350000
v -0.000000 0.400000 0.380000
v -0.056678 0.400000 0.376352
v -0.112268 0.400000 0.365476
v -0.165702 0.400000 0.347583
v -0.215954 0.400000 0.323015
v -0.262059 0.400000 0.292245
v -0.303132 0.400000 0.255863
v -0.338385 0.400000 0.214568
v -0.367139 0.400000 0.169153
v -0.388844 0.400000 0.120489
v -0.403082 0.400000 0.069512
v -0.409580 0.400000 0.017200
v -0.408213 0.400000 -0.035442
v -0.399007 0.400000 -0.087404
v -0.382140 0.400000 -0.137687
v -0.357934 0.400000 -0.185327
v -0.326856 0.400000 -0.229407
v -0.289501 0.400000 -0.269083
v -0.246587 0.400000 -0.303591
v -0.208948 0.400000 -0.326950
v -0.168759 0.400000 -0.346317
v -0.126510 0.400000 -0.361458
v -0.082716 0.400000 -0.372186
v -0.037913 0.400000 -0.378372
v 0.007353 0.400000 -0.379939
v 0.052529 0.400000 -0.376868
v 0.097063 0.400000 -0.369198
v 0.140413 0.400000 -0.357021
v 0.182050 0.400000 -0.340486
v 0.221464 0.400000 -0.319795
v 0.258174 0.400000 -0.295200
v 0.299168 0.400000 -0.259841
v 0.334580 0.400000 -0.219634
v 0.363750 0.400000 -0.175329
v 0.386135 0.400000 -0.127754
v 0.401316 0.400000 -0.077796
v 0.409010 0.400000 -0.026386
v 0.409075 0.400000 0.025516
v 0.401508 0.400000 0.076942
v 0.386450 0.400000 0.126933
v 0.364183 0.400000 0.174555
v 0.335123 0.400000 0.218922
v 0.299810 0.400000 0.259204
v 0.258905 0.400000 0.294651
v 0.213169 0.400000 0.324601
v 0.163457 0.400000 0.348495
v 0.110695 0.400000 0.365888
v 0.055869 0.400000 0.376455
v 0.000000 0.400000 0.380000
v -0.000000 0.550000 0.400000
v -0.059585 0.550000 0.396141
v -0.118021 0.550000 0.384639
v -0.174179 0.550000 0.365715
v -0.226977 0.550000 0.339734
v -0.275395 0.550000 0.307199
v -0.318499 0.550000 0.268736
v -0.355458 0.550000 0.225088
v -0.385559 0.550000 0.177097
v -0.408220 0.550000 0.125689
v -0.423005 0.550000 0.071856
v -0.429628 0.550000 0.016636
v -0.427961 0.550000 -0.038905
v -0.418037 0.550000 -0.093695
v -0.400047 0.550000 -0.146677
v -0.374338 0.550000 -0.196829
v -0.341407 0.550000 -0.243183
v -0.301888 0.550000 -0.284845
v -0.256544 0.550000 -0.321011
v -0.216911 0.550000 -0.345378
v -0.174630 0.550000 -0.365529
v -0.130218 0.550000 -0.381218
v -0.084216 0.550000 -0.392254
v -0.037186 0.550000 -0.398501
v 0.010298 0.550000 -0.399885
v 0.057656 0.550000 -0.396388
v 0.104310 0.550000 -0.388052
v 0.149691 0.550000 -0.374980
v 0.193245 0.550000 -0.357331
v 0.234440 0.550000 -0.335320
v 0.272773 0.550000 -0.309216
v 0.315427 0.550000 -0.271854
v 0.352225 0.550000 -0.229445
v 0.382484 0.550000 -0.182776
v 0.405643 0.550000 -0.132714
v 0.421271 0.550000 -0.080188
v 0.429078 0.550000 -0.026174
v 0.428920 0.550000 0.028326
v 0.420800 0.550000 0.082300
v 0.404867 0.550000 0.134747
v 0.381419 0.550000 0.184692
v 0.350890 0.550000 0.231208
v 0.313846 0.550000 0.273432
v 0.270977 0.550000 0.310580
v 0.223076 0.550000 0.341963
v 0.171035 0.550000 0.366997
v 0.115818 0.550000 0.385217
v 0.058452 0.550000 0.396287
v 0.000000 0.550000 0.400000
v -0.000000 0.700000 0.405000
v -0.060986 0.700000 0.401091
v -0.120794 0.700000 0.389439
v -0.178270 0.700000 0.370270
v -0.232305 0.700000 0.343952
v -0.281856 0.700000 0.310995
v -0.325966 0.700000 0.272035
v -0.363783 0.700000 0.227823
v -0.394578 0.700000 0.179213
v -0.417755 0.700000 0.127144
v -0.432869 0.700000 0.072620
v -0.439626 0.700000 0.016695
v -0.437897 0.700000 -0.039553
v -0.427714 0.700000 -0.095037
v -0.409275 0.700000 -0.148687
v -0.382935 0.700000 -0.199467
v -0.349203 0.700000 -0.246395
v -0.308730 0.700000 -0.288568
v -0.262297 0.700000 -0.325170
v -0.221726 0.700000 -0.349818
v -0.178448 0.700000 -0.370197
v -0.132993 0.700000 -0.386057
v -0.085914 0.700000 -0.397204
v -0.037786 0.700000 -0.403504
v 0.010803 0.700000 -0.404878
v 0.059260 0.700000 -0.401310
v 0.106993 0.700000 -0.392844
v 0.153421 0.700000 -0.379582
v 0.197976 0.700000 -0.361688
v 0.240114 0.700000 -0.339378
v 0.279322 0.700000 -0.312926
v 0.322933 0.700000 -0.275083
v 0.360551 0.700000 -0.232135
v 0.391480 0.700000 -0.184879
v 0.415145 0.700000 -0.134193
v 0.431106 0.700000 -0.081018
v 0.439069 0.700000 -0.026339
v 0.438884 0.700000 0.028829
v 0.430556 0.700000 0.083462
v 0.414238 0.700000 0.136546
v 0.390235 0.700000 0.187097
v 0.358990 0.700000 0.234176
v 0.321084 0.700000 0.276910
v 0.277221 0.700000 0.314505
v 0.228214 0.700000 0.346265
v 0.174972 0.700000 0.371600
v 0.118483 0.700000 0.390040
v 0.059797 0.700000 0.401243
v 0.000000 0.700000 0.405000
v -0.000000 0.850000 0.405000
v -0.060866 0.850000 0.401106
v -0.120561 0.850000 0.389500
v -0.177939 0.850000 0.370405
v -0.231895 0.850000 0.344187
v -0.281392 0.850000 0.311351
v -0.325478 0.850000 0.272529
v -0.363306 0.850000 0.228467
v -0.394149 0.850000 0.180011
v -0.417413 0.850000 0.128095
v -0.432650 0.850000 0.073715
v -0.439569 0.850000 0.017918
v -0.438036 0.850000 -0.038224
v -0.428080 0.850000 -0.093631
v -0.409893 0.850000 -0.147237
v -0.383825 0.850000 -0.198012
v -0.350376 0.850000 -0.244980
v -0.310191 0.850000 -0.287237
v -0.264041 0.850000 -0.323972
v -0.223603 0.850000 -0.348805
v -0.180435 0.850000 -0.369380
v -0.135066 0.850000 -0.385447
v -0.088047 0.850000 -0.396808
v -0.039954 0.850000 -0.403327
v 0.008627 0.850000 -0.404922
v 0.057102 0.850000 -0.401575
v 0.104881 0.850000 -0.393326
v 0.151379 0.850000 -0.380276
v 0.196030 0.850000 -0.362585
v 0.238288 0.850000 -0.340467
v 0.277637 0.850000 -0.314194
v 0.321533 0.850000 -0.276468
v 0.359439 0.850000 -0.233591
v 0.390649 0.850000 -0.186363
v 0.414581 0.850000 -0.135662
v 0.430789 0.850000 -0.082435
v 0.438972 0.850000 -0.027671
v 0.438976 0.850000 0.027608
v 0.430803 0.850000 0.082373
v 0.414604 0.850000 0.135603
v 0.390680 0.850000 0.186307
v 0.359479 0.850000 0.233540
v 0.321580 0.850000 0.276422
v 0.277690 0.850000 0.314154
v 0.228627 0.850000 0.346034
v 0.175305 0.850000 0.371467
v 0.118716 0.850000 0.389980
v 0.059916 0.850000 0.401227
v 0.000000 0.850000 0.405000
v -0.000000 0.980000 0.398000
v -0.060533 0.980000 0.394037
v -0.119861 0.980000 0.382225
v -0.176801 0.980000 0.362801
v -0.230220 0.980000 0.336151
v -0.279054 0.980000 0.302806
v -0.322330 0.980000 0.263430
v -0.359186 0.980000 0.218808
v -0.388889 0.980000 0.169827
v -0.410846 0.980000 0.117464
v -0.424620 0.980000 0.062762
v -0.429937 0.980000 0.006809
v -0.426691 0.980000 -0.049279
v -0.414947 0.980000 -0.104385
v -0.394939 0.980000 -0.157413
v -0.367064 0.980000 -0.207305
v -0.331879 0.980000 -0.253069
v -0.290084 0.980000 -0.293792
v -0.242511 0.980000 -0.328664
v -0.205166 0.980000 -0.349775
v -0.165696 0.980000 -0.367264
v -0.124510 0.980000 -0.380950
v -0.082034 0.980000 -0.390690
v -0.038709 0.980000 -0.396384
v 0.005017 0.980000 -0.397973
v 0.048691 0.980000 -0.395440
v 0.091861 0.980000 -0.388812
v 0.134080 0.980000 -0.378157
v 0.174910 0.980000 -0.363586
v 0.213928 0.980000 -0.345249
v 0.250731 0.980000 -0.323337
v 0.297009 0.980000 -0.287804
v 0.337479 0.980000 -0.246643
v 0.371350 0.980000 -0.200659
v 0.397960 0.980000 -0.150752
v 0.416789 0.980000 -0.097898
v 0.427468 0.980000 -0.043129
v 0.429788 0.980000 0.012484
v 0.423705 0.980000 0.067852
v 0.409337 0.980000 0.121893
v 0.386965 0.980000 0.173551
v 0.357026 0.980000 0.221816
v 0.320107 0.980000 0.265743
v 0.276928 0.980000 0.304474
v 0.228334 0.980000 0.337252
v 0.175275 0.980000 0.363435
v 0.118790 0.980000 0.382512
v 0.059981 0.980000 0.394109
v 0.000000 0.980000 0.398000
v -0.000000 1.080000 0.405000
v -0.065321 1.080000 0.400710
v -0.129259 1.080000 0.387933
v -0.190458 1.080000 0.366937
v -0.247623 1.080000 0.338169
v -0.299543 1.080000 0.302237
v -0.345117 1.080000 0.259903
v -0.383381 1.080000 0.212063
v -0.413523 1.080000 0.159731
v -0.434906 1.080000 0.104015
v -0.447076 1.080000 0.046097
v -0.449775 1.080000 -0.012799
v -0.442947 1.080000 -0.071423
v -0.426736 1.080000 -0.128534
v -0.401485 1.080000 -0.182923
v -0.367730 1.080000 -0.233436
v -0.326185 1.080000 -0.279005
v -0.277730 1.080000 -0.318664
v -0.223392 1.080000 -0.351572
v -0.188496 1.080000 -0.367757
v -0.152165 1.080000 -0.381143
v -0.114676 1.080000 -0.391629
v -0.076315 1.080000 -0.399134
v -0.037372 1.080000 -0.403601
v 0.001854 1.080000 -0.404997
v 0.041067 1.080000 -0.403310
v 0.079967 1.080000 -0.398554
v 0.118259 1.080000 -0.390765
v 0.155650 1.080000 -0.380001
v 0.191857 1.080000 -0.366346
v 0.226604 1.080000 -0.349903
v 0.280478 1.080000 -0.316708
v 0.328447 1.080000 -0.276847
v 0.369503 1.080000 -0.231158
v 0.402780 1.080000 -0.180603
v 0.427579 1.080000 -0.126246
v 0.443376 1.080000 -0.069232
v 0.449841 1.080000 -0.010760
v 0.446836 1.080000 0.047938
v 0.434426 1.080000 0.105628
v 0.412870 1.080000 0.161093
v 0.382623 1.080000 0.213168
v 0.344322 1.080000 0.260755
v 0.298773 1.080000 0.302853
v 0.246935 1.080000 0.338576
v 0.189898 1.080000 0.367172
v 0.128864 1.080000 0.388039
v 0.065117 1.080000 0.400737
v 0.000000 1.080000 0.405000
v -0.000000 1.160000 0.420000
v -0.070889 1.160000 0.415394
v -0.140223 1.160000 0.401679
v -0.206482 1.160000 0.379154
v -0.268213 1.160000 0.348314
v -0.324061 1.160000 0.309834
v -0.372803 1.160000 0.264560
v -0.413368 1.160000 0.213484
v -0.444868 1.160000 0.157725
v -0.466611 1.160000 0.098508
v -0.478121 1.160000 0.037130
v -0.479145 1.160000 -0.025062
v -0.469660 1.160000 -0.086705
v -0.449876 1.160000 -0.146446
v -0.420225 1.160000 -0.202975
v -0.381359 1.160000 -0.255053
v -0.334128 1.160000 -0.301537
v -0.279570 1.160000 -0.341408
v -0.218880 1.160000 -0.373791
v -0.184689 1.160000 -0.387666
v -0.149358 1.160000 -0.399150
v -0.113107 1.160000 -0.408173
v -0.076158 1.160000 -0.414680
v -0.038740 1.160000 -0.418630
v -0.001083 1.160000 -0.419999
v 0.036580 1.160000 -0.418779
v 0.074018 1.160000 -0.414976
v 0.111000 1.160000 -0.408616
v 0.147297 1.160000 -0.399736
v 0.182687 1.160000 -0.388391
v 0.216950 1.160000 -0.374652
v 0.277904 1.160000 -0.342448
v 0.332743 1.160000 -0.302707
v 0.380259 1.160000 -0.256306
v 0.419408 1.160000 -0.204265
v 0.449328 1.160000 -0.147728
v 0.469360 1.160000 -0.087941
v 0.479064 1.160000 -0.026219
v 0.478226 1.160000 0.036081
v 0.466864 1.160000 0.097586
v 0.445228 1.160000 0.156944
v 0.413796 1.160000 0.212848
v 0.373257 1.160000 0.264069
v 0.324505 1.160000 0.309479
v 0.268612 1.160000 0.348078
v 0.206808 1.160000 0.379018
v 0.140454 1.160000 0.401617
v 0.071008 1.160000 0.415379
v 0.000000 1.160000 0.420000
v -0.000000 1.240000 0.425000
v -0.072198 1.240000 0.420361
v -0.142820 1.240000 0.406547
v -0.210325 1.240000 0.383857
v -0.273238 1.240000 0.352789
v -0.330186 1.240000 0.314019
v -0.379928 1.240000 0.268395
v -0.421375 1.240000 0.216911
v -0.453624 1.240000 0.160693
v -0.475972 1.240000 0.100967
v -0.487929 1.240000 0.039037
v -0.489235 1.240000 -0.023745
v -0.479861 1.240000 -0.086009
v -0.460013 1.240000 -0.146395
v -0.430123 1.240000 -0.203586
v -0.390843 1.240000 -0.256332
v -0.343032 1.240000 -0.303483
v -0.287733 1.240000 -0.344010
v -0.226153 1.240000 -0.377026
v -0.191351 1.240000 -0.391254
v -0.155368 1.240000 -0.403070
v -0.118428 1.240000 -0.412400
v -0.080758 1.240000 -0.419188
v -0.042590 1.240000 -0.423392
v -0.004159 1.240000 -0.424985
v 0.034297 1.240000 -0.423958
v 0.072542 1.240000 -0.420317
v 0.110340 1.240000 -0.414084
v 0.147457 1.240000 -0.405299
v 0.183666 1.240000 -0.394015
v 0.218742 1.240000 -0.380302
v 0.281337 1.240000 -0.347966
v 0.337714 1.240000 -0.307938
v 0.386623 1.240000 -0.261102
v 0.426986 1.240000 -0.208494
v 0.457909 1.240000 -0.151276
v 0.478708 1.240000 -0.090713
v 0.488924 1.240000 -0.028146
v 0.488331 1.240000 0.035044
v 0.476942 1.240000 0.097460
v 0.455009 1.240000 0.157720
v 0.423017 1.240000 0.214494
v 0.381672 1.240000 0.266526
v 0.331890 1.240000 0.312665
v 0.274770 1.240000 0.351892
v 0.211576 1.240000 0.383340
v 0.143704 1.240000 0.406312
v 0.072655 1.240000 0.420302
v 0.000000 1.240000 0.425000
v -0.000000 1.320000 0.405000
v -0.069105 1.320000 0.400598
v -0.136707 1.320000 0.387489
v -0.201338 1.320000 0.365958
v -0.261593 1.320000 0.336471
v -0.316161 1.320000 0.299672
v -0.363858 1.320000 0.256358
v -0.403645 1.320000 0.207472
v -0.434659 1.320000 0.154077
v -0.456225 1.320000 0.097332
v -0.467875 1.320000 0.038472
v -0.469354 1.320000 -0.021224
v -0.460632 1.320000 -0.080459
v -0.441897 1.320000 -0.137946
v -0.413557 1.320000 -0.192433
v -0.376228 1.320000 -0.242738
v -0.330721 1.320000 -0.287767
v -0.278025 1.320000 -0.326541
v -0.219286 1.320000 -0.358217
v -0.185994 1.320000 -0.371938
v -0.151555 1.320000 -0.383366
v -0.116182 1.320000 -0.392431
v -0.080093 1.320000 -0.399076
v -0.043509 1.320000 -0.403261
v -0.006658 1.320000 -0.404959
v 0.030235 1.320000 -0.404161
v 0.066941 1.320000 -0.400871
v 0.103235 1.320000 -0.395110
v 0.138892 1.320000 -0.386912
v 0.173692 1.320000 -0.376329
v 0.207422 1.320000 -0.363426
v 0.267787 1.320000 -0.332834
v 0.322207 1.320000 -0.294852
v 0.369473 1.320000 -0.250324
v 0.408536 1.320000 -0.200239
v 0.438529 1.320000 -0.145708
v 0.458786 1.320000 -0.087942
v 0.468857 1.320000 -0.028223
v 0.468519 1.320000 0.032122
v 0.457780 1.320000 0.091754
v 0.436876 1.320000 0.149349
v 0.406274 1.320000 0.203628
v 0.366651 1.320000 0.253386
v 0.318888 1.320000 0.297518
v 0.264046 1.320000 0.335046
v 0.203341 1.320000 0.365134
v 0.138122 1.320000 0.387117
v 0.069836 1.320000 0.400504
v 0.000000 1.320000 0.405000
v -0.000000 1.400000 0.370000
v -0.061643 1.400000 0.365993
v -0.121951 1.400000 0.354059
v -0.179618 1.400000 0.334457
v -0.233395 1.400000 0.307611
v -0.282117 1.400000 0.274103
v -0.324728 1.400000 0.234657
v -0.360306 1.400000 0.190130
v -0.388080 1.400000 0.141484
v -0.407450 1.400000 0.089774
v -0.417994 1.400000 0.036120
v -0.419485 1.400000 -0.018316
v -0.411891 1.400000 -0.072356
v -0.395375 1.400000 -0.124829
v -0.370297 1.400000 -0.174598
v -0.337198 1.400000 -0.220586
v -0.296796 1.400000 -0.261796
v -0.249966 1.400000 -0.297336
v -0.197722 1.400000 -0.326435
v -0.168039 1.400000 -0.339095
v -0.137321 1.400000 -0.349665
v -0.105756 1.400000 -0.358078
v -0.073539 1.400000 -0.364284
v -0.040868 1.400000 -0.368244
v -0.007946 1.400000 -0.369934
v 0.025025 1.400000 -0.369343
v 0.057843 1.400000 -0.366474
v 0.090303 1.400000 -0.361347
v 0.122207 1.400000 -0.353991
v 0.153357 1.400000 -0.344453
v 0.183562 1.400000 -0.332791
v 0.237747 1.400000 -0.305014
v 0.286634 1.400000 -0.270440
v 0.329136 1.400000 -0.229842
v 0.364304 1.400000 -0.184122
v 0.391356 1.400000 -0.134300
v 0.409688 1.400000 -0.081486
v 0.418892 1.400000 -0.026856
v 0.418763 1.400000 0.028372
v 0.409305 1.400000 0.082967
v 0.390726 1.400000 0.135715
v 0.363443 1.400000 0.185438
v 0.328062 1.400000 0.231030
v 0.285371 1.400000 0.271475
v 0.236323 1.400000 0.305871
v 0.182009 1.400000 0.333453
v 0.123640 1.400000 0.353605
v 0.062517 1.400000 0.365878
v 0.000000 1.400000 0.370000
v -0.000000 1.470000 0.300000
v -0.049843 1.470000 0.296759
v -0.098608 1.470000 0.287106
v -0.145244 1.470000 0.271249
v -0.188740 1.470000 0.249531
v -0.228159 1.470000 0.222422
v -0.262648 1.470000 0.190507
v -0.291462 1.470000 0.154475
v -0.313978 1.470000 0.115106
v -0.329709 1.470000 0.073249
v -0.338317 1.470000 0.029810
v -0.339615 1.470000 -0.014273
v -0.333575 1.470000 -0.058048
v -0.320327 1.470000 -0.100569
v -0.300157 1.470000 -0.140916
v -0.273502 1.470000 -0.178219
v -0.240938 1.470000 -0.211671
v -0.203167 1.470000 -0.240549
v -0.161007 1.470000 -0.264230
v -0.137015 1.470000 -0.274562
v -0.112178 1.470000 -0.283201
v -0.086650 1.470000 -0.290094
v -0.060588 1.470000 -0.295198
v -0.034152 1.470000 -0.298483
v -0.007506 1.470000 -0.299927
v 0.019187 1.470000 -0.299522
v 0.045762 1.470000 -0.297270
v 0.072054 1.470000 -0.293186
v 0.097902 1.470000 -0.287294
v 0.123146 1.470000 -0.279631
v 0.147632 1.470000 -0.270243
v 0.191625 1.470000 -0.247814
v 0.231339 1.470000 -0.219850
v 0.265887 1.470000 -0.186976
v 0.294497 1.470000 -0.149927
v 0.316530 1.470000 -0.109529
v 0.331494 1.470000 -0.066686
v 0.339055 1.470000 -0.022353
v 0.339044 1.470000 0.022479
v 0.331462 1.470000 0.066809
v 0.316477 1.470000 0.109647
v 0.294425 1.470000 0.150037
v 0.265797 1.470000 0.187075
v 0.231234 1.470000 0.219936
v 0.191506 1.470000 0.247885
v 0.147502 1.470000 0.270299
v 0.100204 1.470000 0.286675
v 0.050668 1.470000 0.296650
v 0.000000 1.470000 0.300000
v -0.000000 1.530000 0.180000
v -0.029299 1.530000 0.178058
v -0.057966 1.530000 0.172274
v -0.085382 1.530000 0.162773
v -0.110956 1.530000 0.149759
v -0.134136 1.530000 0.133515
v -0.154421 1.530000 0.114389
v -0.171375 1.530000 0.092795
v -0.184630 1.530000 0.069199
v -0.193902 1.530000 0.044110
v -0.198990 1.530000 0.018068
v -0.199784 1.530000 -0.008362
v -0.196267 1.530000 -0.034613
v -0.188516 1.530000 -0.060117
v -0.176697 1.530000 -0.084323
v -0.161065 1.530000 -0.106710
v -0.141958 1.530000 -0.126795
v -0.119787 1.530000 -0.144143
v -0.095033 1.530000 -0.158382
v -0.080932 1.530000 -0.164604
v -0.066333 1.530000 -0.169811
v -0.051325 1.530000 -0.173972
v -0.036001 1.530000 -0.177060
v -0.020454 1.530000 -0.179056
v -0.004782 1.530000 -0.179949
v 0.010921 1.530000 -0.179731
v 0.026555 1.530000 -0.178406
v 0.042026 1.530000 -0.175981
v 0.057238 1.530000 -0.172471
v 0.072097 1.530000 -0.167898
v 0.086512 1.530000 -0.162289
v 0.112434 1.530000 -0.148864
v 0.135843 1.530000 -0.132109
v 0.156213 1.530000 -0.112400
v 0.173091 1.530000 -0.090178
v 0.186097 1.530000 -0.065939
v 0.194942 1.530000 -0.040226
v 0.199427 1.530000 -0.013613
v 0.199453 1.530000 0.013305
v 0.195018 1.530000 0.039925
v 0.186222 1.530000 0.065652
v 0.173262 1.530000 0.089911
v 0.156427 1.530000 0.112159
v 0.136094 1.530000 0.131899
v 0.112718 1.530000 0.148690
v 0.086821 1.530000 0.162155
v 0.058982 1.530000 0.171994
v 0.029825 1.530000 0.177987
v 0.000000 1.530000 0.180000
v 0.000000 0.080000 0.000000
v 0.000000 1.575000 0.000000
s 1
g DarkSurface
usemtl Dark
f 1 50 51 2
f 2 51 52 3
f 3 52 53 4
f 4 53 54 5
f 5 54 55 6
f 6 55 56 7
f 7 56 57 8
f 8 57 58 9
f 9 58 59 10
f 10 59 60 11
f 11 60 61 12
f 12 61 62 13
f 13 62 63 14
f 14 63 64 15
f 15 64 65 16
f 16 65 66 17
f 17 66 67 18
f 18 67 68 19
f 50 99 100 51
f 51 100 101 52
f 52 101 102 53
f 53 102 103 54
f 54 103 104 55
f 55 104 105 56
f 56 105 106 57
f 57 106 107 58
f 58 107 108 59
f 59 108 109 60
f 60 109 110 61
f 61 110 111 62
f 62 111 112 63
f 63 112 113 64
f 64 113 114 65
f 65 114 115 66
f 66 115 116 67
f 67 116 117 68
f 99 148 149 100
f 100 149 150 101
f 101 150 151 102
f 102 151 152 103
f 103 152 153 104
f 104 153 154 105
f 105 154 155 106
f 106 155 156 107
f 107 156 157 108
f 108 157 158 109
f 109 158 159 110
f 110 159 160 111
f 111 160 161 112
f 112 161 162 113
f 113 162 163 114
f 114 163 164 115
f 115 164 165 116
f 116 165 166 117
f 148 197 198 149
f 149 198 199 150
f 150 199 200 151
f 151 200 201 152
f 152 201 202 153
f 153 202 203 154
f 154 203 204 155
f 155 204 205 156
f 156 205 206 157
f 157 206 207 158
f 158 207 208 159
f 159 208 209 160
f 160 209 210 161
f 161 210 211 162
f 162 211 212 163
f 163 212 213 164
f 164 213 214 165
f 165 214 215 166
f 197 246 247 198
f 198 247 248 199
f 199 248 249 200
f 200 249 250 201
f 201 250 251 202
f 202 251 252 203
f 203 252 253 204
f 204 253 254 205
f 205 254 255 206
f 206 255 256 207
f 207 256 257 208
f 208 257 258 209
f 209 258 259 210
f 210 259 260 211
f 211 260 261 212
f 212 261 262 213
f 213 262 263 214
f 214 263 264 215
f 246 295 296 247
f 247 296 297 248
f 248 297 298 249
f 249 298 299 250
f 250 299 300 251
f 251 300 301 252
f 252 301 302 253
f 253 302 303 254
f 254 303 304 255
f 255 304 305 256
f 256 305 306 257
f 257 306 307 258
f 258 307 308 259
f 259 308 309 260
f 260 309 310 261
f 261 310 311 262
f 262 311 312 263
f 263 312 313 264
f 295 344 345 296
f 296 345 346 297
f 297 346 347 298
f 298 347 348 299
f 299 348 349 300
f 300 349 350 301
f 301 350 351 302
f 302 351 352 303
f 303 352 353 304
f 304 353 354 305
f 305 354 355 306
f 306 355 356 307
f 307 356 357 308
f 308 357 358 309
f 309 358 359 310
f 310 359 360 311
f 311 360 361 312
f 312 361 362 313
f 344 393 394 345
f 345 394 395 346
f 346 395 396 347
f 347 396 397 348
f 348 397 398 349
f 349 398 399 350
f 350 399 400 351
f 351 400 401 352
f 352 401 402 353
f 353 402 403 354
f 354 403 404 355
f 355 404 405 356
f 356 405 406 357
f 357 406 407 358
f 358 407 408 359
f 359 408 409 360
f 360 409 410 361
f 361 410 411 362
f 393 442 443 394
f 394 443 444 395
f 395 444 445 396
f 396 445 446 397
f 397 446 447 398
f 398 447 448 399
f 399 448 449 400
f 400 449 450 401
f 401 450 451 402
f 402 451 452 403
f 403 452 453 404
f 404 453 454 405
f 405 454 455 406
f 406 455 456 407
f 407 456 457 408
f 408 457 458 409
f 409 458 459 410
f 410 459 460 411
f 442 491 492 443
f 443 492 493 444
f 444 493 494 445
f 445 494 495 446
f 446 495 496 447
f 447 496 497 448
f 448 497 498 449
f 449 498 499 450
f 450 499 500 451
f 451 500 501 452
f 452 501 502 453
f 453 502 503 454
f 454 503 504 455
f 455 504 505 456
f 456 505 506 457
f 457 506 507 458
f 458 507 508 459
f 459 508 509 460
f 491 540 541 492
f 492 541 542 493
f 493 542 543 494
f 494 543 544 495
f 495 544 545 496
f 496 545 546 497
f 497 546 547 498
f 498 547 548 499
f 499 548 549 500
f 500 549 550 501
f 501 550 551 502
f 502 551 552 503
f 503 552 553 504
f 504 553 554 505
f 505 554 555 506
f 506 555 556 507
f 507 556 557 508
f 508 557 558 509
f 540 589 590 541
f 541 590 591 542
f 542 591 592 543
f 543 592 593 544
f 544 593 594 545
f 545 594 595 546
f 546 595 596 547
f 547 596 597 548
f 548 597 598 549
f 549 598 599 550
f 550 599 600 551
f 551 600 601 552
f 552 601 602 553
f 553 602 603 554
f 554 603 604 555
f 555 604 605 556
f 556 605 606 557
f 557 606 607 558
f 589 638 639 590
f 590 639 640 591
f 591 640 641 592
f 592 641 642 593
f 593 642 643 594
f 594 643 644 595
f 595 644 645 596
f 596 645 646 597
f 597 646 647 598
f 598 647 648 599
f 599 648 649 600
f 600 649 650 601
f 601 650 651 602
f 602 651 652 603
f 603 652 653 604
f 604 653 654 605
f 605 654 655 606
f 606 655 656 607
f 638 687 688 639
f 639 688 689 640
f 640 689 690 641
f 641 690 691 642
f 642 691 692 643
f 643 692 693 644
f 644 693 694 645
f 645 694 695 646
f 646 695 696 647
f 647 696 697 648
f 648 697 698 649
f 649 698 699 650
f 650 699 700 651
f 651 700 701 652
f 652 701 702 653
f 653 702 703 654
f 654 703 704 655
f 655 704 705 656
f 736 1 2
f 737 688 687
f 736 2 3
f 737 689 688
f 736 3 4
f 737 690 689
f 736 4 5
f 737 691 690
f 736 5 6
f 737 692 691
f 736 6 7
f 737 693 692
f 736 7 8
f 737 694 693
f 736 8 9
f 737 695 694
f 736 9 10
f 737 696 695
f 736 10 11
f 737 697 696
f 736 11 12
f 737 698 697
f 736 12 13
f 737 699 698
f 736 13 14
f 737 700 699
f 736 14 15
f 737 701 700
f 736 15 16
f 737 702 701
f 736 16 17
f 737 703 702
f 736 17 18
f 737 704 703
f 736 18 19
f 737 705 704
g OrangeSurface
usemtl Orange
f 31 80 81 32
f 32 81 82 33
f 33 82 83 34
f 34 83 84 35
f 35 84 85 36
f 36 85 86 37
f 37 86 87 38
f 38 87 88 39
f 39 88 89 40
f 40 89 90 41
f 41 90 91 42
f 42 91 92 43
f 43 92 93 44
f 44 93 94 45
f 45 94 95 46
f 46 95 96 47
f 47 96 97 48
f 48 97 98 49
f 80 129 130 81
f 81 130 131 82
f 82 131 132 83
f 83 132 133 84
f 84 133 134 85
f 85 134 135 86
f 86 135 136 87
f 87 136 137 88
f 88 137 138 89
f 89 138 139 90
f 90 139 140 91
f 91 140 141 92
f 92 141 142 93
f 93 142 143 94
f 94 143 144 95
f 95 144 145 96
f 96 145 146 97
f 97 146 147 98
f 129 178 179 130
f 130 179 180 131
f 131 180 181 132
f 132 181 182 133
f 133 182 183 134
f 134 183 184 135
f 135 184 185 136
f 136 185 186 137
f 137 186 187 138
f 138 187 188 139
f 139 188 189 140
f 140 189 190 141
f 141 190 191 142
f 142 191 192 143
f 143 192 193 144
f 144 193 194 145
f 145 194 195 146
f 146 195 196 147
f 178 227 228 179
f 179 228 229 180
f 180 229 230 181
f 181 230 231 182
f 182 231 232 183
f 183 232 233 184
f 184 233 234 185
f 185 234 235 186
f 186 235 236 187
f 187 236 237 188
f 188 237 238 189
f 189 238 239 190
f 190 239 240 191
f 191 240 241 192
f 192 241 242 193
f 193 242 243 194
f 194 243 244 195
f 195 244 245 196
f 227 276 277 228
f 228 277 278 229
f 229 278 279 230
f 230 279 280 231
f 231 280 281 232
f 232 281 282 233
f 233 282 283 234
f 234 283 284 235
f 235 284 285 236
f 236 285 286 237
f 237 286 287 238
f 238 287 288 239
f 239 288 289 240
f 240 289 290 241
f 241 290 291 242
f 242 291 292 243
f 243 292 293 244
f 244 293 294 245
f 276 325 326 277
f 277 326 327 278
f 278 327 328 279
f 279 328 329 280
f 280 329 330 281
f 281 330 331 282
f 282 331 332 283
f 283 332 333 284
f 284 333 334 285
f 285 334 335 286
f 286 335 336 287
f 287 336 337 288
f 288 337 338 289
f 289 338 339 290
f 290 339 340 291
f 291 340 341 292
f 292 341 342 293
f 293 342 343 294
f 325 374 375 326
f 326 375 376 327
f 327 376 377 328
f 328 377 378 329
f 329 378 379 330
f 330 379 380 331
f 331 380 381 332
f 332 381 382 333
f 333 382 383 334
f 334 383 384 335
f 335 384 385 336
f 336 385 386 337
f 337 386 387 338
f 338 387 388 339
f 339 388 389 340
f 340 389 390 341
f 341 390 391 342
f 342 391 392 343
f 374 423 424 375
f 375 424 425 376
f 376 425 426 377
f 377 426 427 378
f 378 427 428 379
f 379 428 429 380
f 380 429 430 381
f 381 430 431 382
f 382 431 432 383
f 383 432 433 384
f 384 433 434 385
f 385 434 435 386
f 386 435 436 387
f 387 436 437 388
f 388 437 438 389
f 389 438 439 390
f 390 439 440 391
f 391 440 441 392
f 423 472 473 424
f 424 473 474 425
f 425 474 475 426
f 426 475 476 427
f 427 476 477 428
f 428 477 478 429
f 429 478 479 430
f 430 479 480 431
f 431 480 481 432
f 432 481 482 433
f 433 482 483 434
f 434 483 484 435
f 435 484 485 436
f 436 485 486 437
f 437 486 487 438
f 438 487 488 439
f 439 488 489 440
f 440 489 490 441
f 472 521 522 473
f 473 522 523 474
f 474 523 524 475
f 475 524 525 476
f 476 525 526 477
f 477 526 527 478
f 478 527 528 479
f 479 528 529 480
f 480 529 530 481
f 481 530 531 482
f 482 531 532 483
f 483 532 533 484
f 484 533 534 485
f 485 534 535 486
f 486 535 536 487
f 487 536 537 488
f 488 537 538 489
f 489 538 539 490
f 521 570 571 522
f 522 571 572 523
f 523 572 573 524
f 524 573 574 525
f 525 574 575 526
f 526 575 576 527
f 527 576 577 528
f 528 577 578 529
f 529 578 579 530
f 530 579 580 531
f 531 580 581 532
f 532 581 582 533
f 533 582 583 534
f 534 583 584 535
f 535 584 585 536
f 536 585 586 537
f 537 586 587 538
f 538 587 588 539
f 570 619 620 571
f 571 620 621 572
f 572 621 622 573
f 573 622 623 574
f 574 623 624 575
f 575 624 625 576
f 576 625 626 577
f 577 626 627 578
f 578 627 628 579
f 579 628 629 580
f 580 629 630 581
f 581 630 631 582
f 582 631 632 583
f 583 632 633 584
f 584 633 634 585
f 585 634 635 586
f 586 635 636 587
f 587 636 637 588
f 619 668 669 620
f 620 669 670 621
f 621 670 671 622
f 622 671 672 623
f 623 672 673 624
f 624 673 674 625
f 625 674 675 626
f 626 675 676 627
f 627 676 677 628
f 628 677 678 629
f 629 678 679 630
f 630 679 680 631
f 631 680 681 632
f 632 681 682 633
f 633 682 683 634
f 634 683 684 635
f 635 684 685 636
f 636 685 686 637
f 668 717 718 669
f 669 718 719 670
f 670 719 720 671
f 671 720 721 672
f 672 721 722 673
f 673 722 723 674
f 674 723 724 675
f 675 724 725 676
f 676 725 726 677
f 677 726 727 678
f 678 727 728 679
f 679 728 729 680
f 680 729 730 681
f 681 730 731 682
f 682 731 732 683
f 683 732 733 684
f 684 733 734 685
f 685 734 735 686
f 736 31 32
f 737 718 717
f 736 32 33
f 737 719 718
f 736 33 34
f 737 720 719
f 736 34 35
f 737 721 720
f 736 35 36
f 737 722 721
f 736 36 37
f 737 723 722
f 736 37 38
f 737 724 723
f 736 38 39
f 737 725 724
f 736 39 40
f 737 726 725
f 736 40 41
f 737 727 726
f 736 41 42
f 737 728 727
f 736 42 43
f 737 729 728
f 736 43 44
f 737 730 729
f 736 44 45
f 737 731 730
f 736 45 46
f 737 732 731
f 736 46 47
f 737 733 732
f 736 47 48
f 737 734 733
f 736 48 49
f 737 735 734
g CreamSurface
usemtl Cream
f 19 68 69 20
f 20 69 70 21
f 21 70 71 22
f 22 71 72 23
f 23 72 73 24
f 24 73 74 25
f 25 74 75 26
f 26 75 76 27
f 27 76 77 28
f 28 77 78 29
f 29 78 79 30
f 30 79 80 31
f 68 117 118 69
f 69 118 119 70
f 70 119 120 71
f 71 120 121 72
f 72 121 122 73
f 73 122 123 74
f 74 123 124 75
f 75 124 125 76
f 76 125 126 77
f 77 126 127 78
f 78 127 128 79
f 79 128 129 80
f 117 166 167 118
f 118 167 168 119
f 119 168 169 120
f 120 169 170 121
f 121 170 171 122
f 122 171 172 123
f 123 172 173 124
f 124 173 174 125
f 125 174 175 126
f 126 175 176 127
f 127 176 177 128
f 128 177 178 129
f 166 215 216 167
f 167 216 217 168
f 168 217 218 169
f 169 218 219 170
f 170 219 220 171
f 171 220 221 172
f 172 221 222 173
f 173 222 223 174
f 174 223 224 175
f 175 224 225 176
f 176 225 226 177
f 177 226 227 178
f 215 264 265 216
f 216 265 266 217
f 217 266 267 218
f 218 267 268 219
f 219 268 269 220
f 220 269 270 221
f 221 270 271 222
f 222 271 272 223
f 223 272 273 224
f 224 273 274 225
f 225 274 275 226
f 226 275 276 227
f 264 313 314 265
f 265 314 315 266
f 266 315 316 267
f 267 316 317 268
f 268 317 318 269
f 269 318 319 270
f 270 319 320 271
f 271 320 321 272
f 272 321 322 273
f 273 322 323 274
f 274 323 324 275
f 275 324 325 276
f 313 362 363 314
f 314 363 364 315
f 315 364 365 316
f 316 365 366 317
f 317 366 367 318
f 318 367 368 319
f 319 368 369 320
f 320 369 370 321
f 321 370 371 322
f 322 371 372 323
f 323 372 373 324
f 324 373 374 325
f 362 411 412 363
f 363 412 413 364
f 364 413 414 365
f 365 414 415 366
f 366 415 416 367
f 367 416 417 368
f 368 417 418 369
f 369 418 419 370
f 370 419 420 371
f 371 420 421 372
f 372 421 422 373
f 373 422 423 374
f 411 460 461 412
f 412 461 462 413
f 413 462 463 414
f 414 463 464 415
f 415 464 465 416
f 416 465 466 417
f 417 466 467 418
f 418 467 468 419
f 419 468 469 420
f 420 469 470 421
f 421 470 471 422
f 422 471 472 423
f 460 509 510 461
f 461 510 511 462
f 462 511 512 463
f 463 512 513 464
f 464 513 514 465
f 465 514 515 466
f 466 515 516 467
f 467 516 517 468
f 468 517 518 469
f 469 518 519 470
f 470 519 520 471
f 471 520 521 472
f 509 558 559 510
f 510 559 560 511
f 511 560 561 512
f 512 561 562 513
f 513 562 563 514
f 514 563 564 515
f 515 564 565 516
f 516 565 566 517
f 517 566 567 518
f 518 567 568 519
f 519 568 569 520
f 520 569 570 521
f 558 607 608 559
f 559 608 609 560
f 560 609 610 561
f 561 610 611 562
f 562 611 612 563
f 563 612 613 564
f 564 613 614 565
f 565 614 615 566
f 566 615 616 567
f 567 616 617 568
f 568 617 618 569
f 569 618 619 570
f 607 656 657 608
f 608 657 658 609
f 609 658 659 610
f 610 659 660 611
f 611 660 661 612
f 612 661 662 613
f 613 662 663 614
f 614 663 664 615
f 615 664 665 616
f 616 665 666 617
f 617 666 667 618
f 618 667 668 619
f 656 705 706 657
f 657 706 707 658
f 658 707 708 659
f 659 708 709 660
f 660 709 710 661
f 661 710 711 662
f 662 711 712 663
f 663 712 713 664
f 664 713 714 665
f 665 714 715 666
f 666 715 716 667
f 667 716 717 668
f 736 19 20
f 737 706 705
f 736 20 21
f 737 707 706
f 736 21 22
f 737 708 707
f 736 22 23
f 737 709 708
f 736 23 24
f 737 710 709
f 736 24 25
f 737 711 710
f 736 25 26
f 737 712 711
f 736 26 27
f 737 713 712
f 736 27 28
f 737 714 713
f 736 28 29
f 737 715 714
f 736 29 30
f 737 716 715
f 736 30 31
f 737 717 716
